# xmcd
#
# Track frame offsets:
#   150
#   11712
#   23512
#   36611
#   51452
#   65011
#   79021
#   99181
#   112135
#   125688
#   138699
#   148749
#
# Disc length: 2179 seconds
#
# Revision: 0
# Processed by: cddbd v1.5.1PL0 Copyright (c) Steve Scherf et al.
# Submitted via: Media_Universe 3.0
#
DISCID=b308810c
DTITLE=John Fogerty - The Blue Ridge Rangers
DYEAR=1900
DGENRE=Country
TTITLE0=Blue Ridge Mountain Blues
TTITLE1=Somewhere Listening (For My Name)
TTITLE2=Youre The Reason
TTITLE3=Jambalaya
TTITLE4=She Thinks I Still Care
TTITLE5=California Blues
TTITLE6=Working On The Building
TTITLE7=Please Help Me Im Falling
TTITLE8=Have Thine Own Way, Lord
TTITLE9=I Aint Never
TTITLE10=Hearts Of Stone
TTITLE11=Today I Started Loving You Again
EXTD=
EXTT0=
EXTT1=
EXTT2=
EXTT3=
EXTT4=
EXTT5=
EXTT6=
EXTT7=
EXTT8=
EXTT9=
EXTT10=
EXTT11=
PLAYORDER=
